<mxfile host="Electron" agent="Mozilla/5.0 (Windows NT 10.0; Win64; x64) AppleWebKit/537.36 (KHTML, like Gecko) draw.io/24.7.8 Chrome/128.0.6613.36 Electron/32.0.1 Safari/537.36" version="24.7.8">
  <diagram name="PÃ¡gina-1" id="ib5yzXk2F002rAM5LGfO">
    <mxGraphModel dx="1100" dy="665" grid="1" gridSize="10" guides="1" tooltips="1" connect="1" arrows="1" fold="1" page="1" pageScale="1" pageWidth="827" pageHeight="1169" math="0" shadow="0">
      <root>
        <mxCell id="0" />
        <mxCell id="1" parent="0" />
        <mxCell id="wdIDFsuDFgxoeWHDSyMu-3" value="" style="edgeStyle=orthogonalEdgeStyle;rounded=0;orthogonalLoop=1;jettySize=auto;html=1;" edge="1" parent="1" source="wdIDFsuDFgxoeWHDSyMu-1" target="wdIDFsuDFgxoeWHDSyMu-2">
          <mxGeometry relative="1" as="geometry">
            <Array as="points">
              <mxPoint x="310" y="395" />
            </Array>
          </mxGeometry>
        </mxCell>
        <mxCell id="wdIDFsuDFgxoeWHDSyMu-23" value="" style="edgeStyle=orthogonalEdgeStyle;rounded=0;orthogonalLoop=1;jettySize=auto;html=1;exitX=0.827;exitY=1;exitDx=0;exitDy=0;exitPerimeter=0;" edge="1" parent="1" source="wdIDFsuDFgxoeWHDSyMu-1">
          <mxGeometry relative="1" as="geometry">
            <mxPoint x="339.9996969696971" y="255" as="sourcePoint" />
            <mxPoint x="500.6299999999999" y="318" as="targetPoint" />
            <Array as="points">
              <mxPoint x="339" y="318" />
            </Array>
          </mxGeometry>
        </mxCell>
        <mxCell id="wdIDFsuDFgxoeWHDSyMu-32" value="" style="edgeStyle=orthogonalEdgeStyle;rounded=0;orthogonalLoop=1;jettySize=auto;html=1;" edge="1" parent="1" source="wdIDFsuDFgxoeWHDSyMu-1" target="wdIDFsuDFgxoeWHDSyMu-31">
          <mxGeometry relative="1" as="geometry" />
        </mxCell>
        <mxCell id="wdIDFsuDFgxoeWHDSyMu-38" value="" style="edgeStyle=orthogonalEdgeStyle;rounded=0;orthogonalLoop=1;jettySize=auto;html=1;" edge="1" parent="1" source="wdIDFsuDFgxoeWHDSyMu-1" target="wdIDFsuDFgxoeWHDSyMu-26">
          <mxGeometry relative="1" as="geometry" />
        </mxCell>
        <mxCell id="wdIDFsuDFgxoeWHDSyMu-41" style="edgeStyle=orthogonalEdgeStyle;rounded=0;orthogonalLoop=1;jettySize=auto;html=1;entryX=1;entryY=0.5;entryDx=0;entryDy=0;" edge="1" parent="1" source="wdIDFsuDFgxoeWHDSyMu-1" target="wdIDFsuDFgxoeWHDSyMu-39">
          <mxGeometry relative="1" as="geometry" />
        </mxCell>
        <mxCell id="wdIDFsuDFgxoeWHDSyMu-1" value="EMPLEADO" style="whiteSpace=wrap;html=1;" vertex="1" parent="1">
          <mxGeometry x="240" y="160" width="120" height="60" as="geometry" />
        </mxCell>
        <mxCell id="wdIDFsuDFgxoeWHDSyMu-5" value="" style="edgeStyle=orthogonalEdgeStyle;rounded=0;orthogonalLoop=1;jettySize=auto;html=1;" edge="1" parent="1" source="wdIDFsuDFgxoeWHDSyMu-2" target="wdIDFsuDFgxoeWHDSyMu-4">
          <mxGeometry relative="1" as="geometry" />
        </mxCell>
        <mxCell id="wdIDFsuDFgxoeWHDSyMu-2" value="coordina" style="rhombus;whiteSpace=wrap;html=1;" vertex="1" parent="1">
          <mxGeometry x="400" y="365" width="60" height="60" as="geometry" />
        </mxCell>
        <mxCell id="wdIDFsuDFgxoeWHDSyMu-8" value="" style="edgeStyle=orthogonalEdgeStyle;rounded=0;orthogonalLoop=1;jettySize=auto;html=1;" edge="1" parent="1" source="wdIDFsuDFgxoeWHDSyMu-4" target="wdIDFsuDFgxoeWHDSyMu-7">
          <mxGeometry relative="1" as="geometry" />
        </mxCell>
        <mxCell id="wdIDFsuDFgxoeWHDSyMu-16" value="" style="edgeStyle=orthogonalEdgeStyle;rounded=0;orthogonalLoop=1;jettySize=auto;html=1;" edge="1" parent="1" source="wdIDFsuDFgxoeWHDSyMu-4" target="wdIDFsuDFgxoeWHDSyMu-15">
          <mxGeometry relative="1" as="geometry" />
        </mxCell>
        <mxCell id="wdIDFsuDFgxoeWHDSyMu-4" value="PROYECTO" style="whiteSpace=wrap;html=1;" vertex="1" parent="1">
          <mxGeometry x="370" y="475" width="120" height="60" as="geometry" />
        </mxCell>
        <mxCell id="wdIDFsuDFgxoeWHDSyMu-19" value="" style="edgeStyle=orthogonalEdgeStyle;rounded=0;orthogonalLoop=1;jettySize=auto;html=1;" edge="1" parent="1" source="wdIDFsuDFgxoeWHDSyMu-6" target="wdIDFsuDFgxoeWHDSyMu-18">
          <mxGeometry relative="1" as="geometry" />
        </mxCell>
        <mxCell id="wdIDFsuDFgxoeWHDSyMu-35" value="" style="edgeStyle=orthogonalEdgeStyle;rounded=0;orthogonalLoop=1;jettySize=auto;html=1;" edge="1" parent="1" source="wdIDFsuDFgxoeWHDSyMu-6" target="wdIDFsuDFgxoeWHDSyMu-34">
          <mxGeometry relative="1" as="geometry" />
        </mxCell>
        <mxCell id="wdIDFsuDFgxoeWHDSyMu-6" value="TAREA" style="whiteSpace=wrap;html=1;" vertex="1" parent="1">
          <mxGeometry x="545" y="170" width="120" height="60" as="geometry" />
        </mxCell>
        <mxCell id="wdIDFsuDFgxoeWHDSyMu-9" value="" style="edgeStyle=orthogonalEdgeStyle;rounded=0;orthogonalLoop=1;jettySize=auto;html=1;" edge="1" parent="1" source="wdIDFsuDFgxoeWHDSyMu-7" target="wdIDFsuDFgxoeWHDSyMu-6">
          <mxGeometry relative="1" as="geometry" />
        </mxCell>
        <mxCell id="wdIDFsuDFgxoeWHDSyMu-7" value="se divide en" style="rhombus;whiteSpace=wrap;html=1;" vertex="1" parent="1">
          <mxGeometry x="570" y="470" width="70" height="70" as="geometry" />
        </mxCell>
        <mxCell id="wdIDFsuDFgxoeWHDSyMu-10" value="SERVICIO" style="whiteSpace=wrap;html=1;" vertex="1" parent="1">
          <mxGeometry x="40" y="475" width="120" height="60" as="geometry" />
        </mxCell>
        <mxCell id="wdIDFsuDFgxoeWHDSyMu-13" value="" style="edgeStyle=orthogonalEdgeStyle;rounded=0;orthogonalLoop=1;jettySize=auto;html=1;" edge="1" parent="1" source="wdIDFsuDFgxoeWHDSyMu-11" target="wdIDFsuDFgxoeWHDSyMu-12">
          <mxGeometry relative="1" as="geometry" />
        </mxCell>
        <mxCell id="wdIDFsuDFgxoeWHDSyMu-45" style="edgeStyle=orthogonalEdgeStyle;rounded=0;orthogonalLoop=1;jettySize=auto;html=1;entryX=1;entryY=0.5;entryDx=0;entryDy=0;" edge="1" parent="1" source="wdIDFsuDFgxoeWHDSyMu-11" target="wdIDFsuDFgxoeWHDSyMu-43">
          <mxGeometry relative="1" as="geometry" />
        </mxCell>
        <mxCell id="wdIDFsuDFgxoeWHDSyMu-11" value="EMPRESA" style="whiteSpace=wrap;html=1;" vertex="1" parent="1">
          <mxGeometry x="150" y="305" width="120" height="60" as="geometry" />
        </mxCell>
        <mxCell id="wdIDFsuDFgxoeWHDSyMu-14" value="" style="edgeStyle=orthogonalEdgeStyle;rounded=0;orthogonalLoop=1;jettySize=auto;html=1;" edge="1" parent="1" source="wdIDFsuDFgxoeWHDSyMu-12" target="wdIDFsuDFgxoeWHDSyMu-10">
          <mxGeometry relative="1" as="geometry" />
        </mxCell>
        <mxCell id="wdIDFsuDFgxoeWHDSyMu-12" value="brinda" style="rhombus;whiteSpace=wrap;html=1;" vertex="1" parent="1">
          <mxGeometry x="70" y="380" width="60" height="60" as="geometry" />
        </mxCell>
        <mxCell id="wdIDFsuDFgxoeWHDSyMu-17" value="" style="edgeStyle=orthogonalEdgeStyle;rounded=0;orthogonalLoop=1;jettySize=auto;html=1;" edge="1" parent="1" source="wdIDFsuDFgxoeWHDSyMu-15" target="wdIDFsuDFgxoeWHDSyMu-10">
          <mxGeometry relative="1" as="geometry" />
        </mxCell>
        <mxCell id="wdIDFsuDFgxoeWHDSyMu-15" value="requiere" style="rhombus;whiteSpace=wrap;html=1;" vertex="1" parent="1">
          <mxGeometry x="230" y="472.5" width="60" height="65" as="geometry" />
        </mxCell>
        <mxCell id="wdIDFsuDFgxoeWHDSyMu-21" value="" style="edgeStyle=orthogonalEdgeStyle;rounded=0;orthogonalLoop=1;jettySize=auto;html=1;" edge="1" parent="1" source="wdIDFsuDFgxoeWHDSyMu-18" target="wdIDFsuDFgxoeWHDSyMu-20">
          <mxGeometry relative="1" as="geometry" />
        </mxCell>
        <mxCell id="wdIDFsuDFgxoeWHDSyMu-18" value="tiene" style="rhombus;whiteSpace=wrap;html=1;" vertex="1" parent="1">
          <mxGeometry x="710" y="342.5" width="60" height="65" as="geometry" />
        </mxCell>
        <mxCell id="wdIDFsuDFgxoeWHDSyMu-20" value="ESTADO" style="whiteSpace=wrap;html=1;" vertex="1" parent="1">
          <mxGeometry x="680" y="475" width="120" height="60" as="geometry" />
        </mxCell>
        <mxCell id="wdIDFsuDFgxoeWHDSyMu-25" style="edgeStyle=orthogonalEdgeStyle;rounded=0;orthogonalLoop=1;jettySize=auto;html=1;entryX=0.25;entryY=1;entryDx=0;entryDy=0;" edge="1" parent="1" source="wdIDFsuDFgxoeWHDSyMu-22" target="wdIDFsuDFgxoeWHDSyMu-6">
          <mxGeometry relative="1" as="geometry" />
        </mxCell>
        <mxCell id="wdIDFsuDFgxoeWHDSyMu-22" value="carga" style="rhombus;whiteSpace=wrap;html=1;" vertex="1" parent="1">
          <mxGeometry x="460" y="292.5" width="60" height="50" as="geometry" />
        </mxCell>
        <mxCell id="wdIDFsuDFgxoeWHDSyMu-30" style="edgeStyle=orthogonalEdgeStyle;rounded=0;orthogonalLoop=1;jettySize=auto;html=1;entryX=0;entryY=0.75;entryDx=0;entryDy=0;" edge="1" parent="1" source="wdIDFsuDFgxoeWHDSyMu-26" target="wdIDFsuDFgxoeWHDSyMu-6">
          <mxGeometry relative="1" as="geometry" />
        </mxCell>
        <mxCell id="wdIDFsuDFgxoeWHDSyMu-26" value="realiza" style="rhombus;whiteSpace=wrap;html=1;" vertex="1" parent="1">
          <mxGeometry x="410" y="220" width="50" height="50" as="geometry" />
        </mxCell>
        <mxCell id="wdIDFsuDFgxoeWHDSyMu-33" style="edgeStyle=orthogonalEdgeStyle;rounded=0;orthogonalLoop=1;jettySize=auto;html=1;entryX=0;entryY=0.25;entryDx=0;entryDy=0;" edge="1" parent="1" source="wdIDFsuDFgxoeWHDSyMu-31" target="wdIDFsuDFgxoeWHDSyMu-6">
          <mxGeometry relative="1" as="geometry" />
        </mxCell>
        <mxCell id="wdIDFsuDFgxoeWHDSyMu-31" value="sigue" style="rhombus;whiteSpace=wrap;html=1;" vertex="1" parent="1">
          <mxGeometry x="270" y="45" width="60" height="60" as="geometry" />
        </mxCell>
        <mxCell id="wdIDFsuDFgxoeWHDSyMu-34" value="subdivide" style="rhombus;whiteSpace=wrap;html=1;" vertex="1" parent="1">
          <mxGeometry x="577.5" y="50" width="55" height="50" as="geometry" />
        </mxCell>
        <mxCell id="wdIDFsuDFgxoeWHDSyMu-37" style="edgeStyle=orthogonalEdgeStyle;rounded=0;orthogonalLoop=1;jettySize=auto;html=1;entryX=0.843;entryY=-0.004;entryDx=0;entryDy=0;entryPerimeter=0;" edge="1" parent="1" source="wdIDFsuDFgxoeWHDSyMu-34" target="wdIDFsuDFgxoeWHDSyMu-6">
          <mxGeometry relative="1" as="geometry">
            <Array as="points">
              <mxPoint x="646" y="75" />
            </Array>
          </mxGeometry>
        </mxCell>
        <mxCell id="wdIDFsuDFgxoeWHDSyMu-39" value="Direccion" style="ellipse;whiteSpace=wrap;html=1;" vertex="1" parent="1">
          <mxGeometry x="140" y="130" width="70" height="50" as="geometry" />
        </mxCell>
        <mxCell id="wdIDFsuDFgxoeWHDSyMu-42" value="NÂ° o&lt;div&gt;Calle o&lt;/div&gt;&lt;div&gt;Piso (0,1) o&lt;/div&gt;&lt;div&gt;Depto (0,1) o&lt;/div&gt;" style="text;html=1;align=right;verticalAlign=middle;resizable=0;points=[];autosize=1;strokeColor=none;fillColor=none;" vertex="1" parent="1">
          <mxGeometry x="40" y="110" width="90" height="70" as="geometry" />
        </mxCell>
        <mxCell id="wdIDFsuDFgxoeWHDSyMu-43" value="Direccion" style="ellipse;whiteSpace=wrap;html=1;" vertex="1" parent="1">
          <mxGeometry x="100" y="240" width="70" height="50" as="geometry" />
        </mxCell>
        <mxCell id="wdIDFsuDFgxoeWHDSyMu-44" value="NÂ° o&lt;div&gt;Calle o&lt;/div&gt;&lt;div&gt;Piso (0,1) o&lt;/div&gt;&lt;div&gt;Depto (0,1) o&lt;/div&gt;" style="text;html=1;align=right;verticalAlign=middle;resizable=0;points=[];autosize=1;strokeColor=none;fillColor=none;" vertex="1" parent="1">
          <mxGeometry y="220" width="90" height="70" as="geometry" />
        </mxCell>
      </root>
    </mxGraphModel>
  </diagram>
</mxfile>
